<svg width="1172" height="400" viewBox="0 0 1172 400" fill="none" xmlns="http://www.w3.org/2000/svg">
<g clip-path="url(#clip0_5_10581)">
<path d="M312.454 230.073L315.732 222.632C317.921 217.602 321.86 216.289 326.888 220.006C336.517 227.009 352.264 232.262 373.271 232.262C391.215 232.262 398.869 227.67 398.869 222.194C398.869 216.066 392.528 214.315 382.024 213.002L358.176 209.947C329.514 206.23 315.072 195.94 315.072 178.002C315.072 158.751 330.827 143.431 367.359 143.431C387.705 143.431 400.835 146.495 409.365 149.773C418.77 153.49 420.083 156.554 420.083 164.218V174.062C420.083 180.19 417.895 182.379 411.768 182.379H404.988C398.861 182.379 396.673 180.19 396.673 174.062V170.775C392.734 169.462 382.891 167.497 371.298 167.497C351.174 167.497 341.323 171.213 341.323 177.341C341.323 181.933 347.227 184.559 357.945 186.095L381.355 189.159C410.017 192.876 425.112 201.415 425.112 221.98C425.112 242.982 405.203 256.336 369.762 256.336C343.726 256.336 322.727 248.019 314.411 240.364C311.356 237.514 310.918 233.79 312.454 230.073Z" fill="black"/>
<path d="M570.66 254.577H558.628C552.724 254.577 550.751 253.701 547.91 249.324L525.16 215.843C521.882 211.251 519.471 210.153 512.692 210.153H489.942V246.26C489.942 252.388 487.754 254.577 481.627 254.577H472.874C466.747 254.577 464.558 252.388 464.558 246.26V137.517H456.466C450.339 137.517 448.151 135.329 448.151 129.201V121.983C448.151 115.855 450.339 113.666 456.466 113.666H481.627C487.754 113.666 489.942 115.855 489.942 121.983V185.658H510.289C517.068 185.658 519.479 184.567 522.758 179.967L541.791 150.649C544.855 146.057 546.82 145.181 552.732 145.181H564.764C571.328 145.181 572.641 150.434 568.917 155.901L547.695 188.069C545.507 191.133 542.881 194.412 540.255 197.038C542.881 199.227 546.597 202.943 548.133 205.132L574.821 244.08C578.537 249.333 577.224 254.577 570.66 254.577Z" fill="black"/>
<path d="M612.079 274.712V267.494C612.079 261.366 614.268 259.177 620.395 259.177H630.898C637.24 259.177 640.304 257.864 642.715 252.834L644.028 249.993L593.929 155.249C590.866 149.559 593.269 145.181 599.833 145.181H611.212C617.117 145.181 619.742 146.272 621.931 150.434L642.93 193.536C647.744 203.381 653.21 214.761 657.587 224.606C661.963 214.976 666.992 204.042 671.806 194.412L693.243 150.434C695.208 146.28 698.057 145.181 703.961 145.181H715.34C721.905 145.181 724.308 149.559 721.244 155.249L664.143 263.562C657.578 276.033 649.924 283.036 632.855 283.036H620.387C614.268 283.028 612.079 280.84 612.079 274.712Z" fill="black"/>
<path d="M861.061 199.441V202.068C861.061 208.196 858.873 210.384 852.746 210.384H763.044C766.107 221.98 777.701 233.137 802.424 233.137C824.521 233.137 834.587 225.919 839.179 222.632C844.207 218.916 847.709 220.22 850.334 225.258L854.05 232.476C856.016 236.193 854.926 239.042 851.639 241.883C846.825 246.037 830.417 256.328 802.416 256.328C764.786 256.328 738.536 234.227 738.536 199.656C738.536 165.737 763.696 143.422 799.79 143.422C835.9 143.422 861.061 165.523 861.061 199.441ZM763.044 189.159H836.776C833.935 177.779 822.333 167.059 799.798 167.059C777.263 167.059 765.884 177.779 763.044 189.159Z" fill="black"/>
<path d="M1020.6 195.717V246.26C1020.6 252.388 1018.41 254.577 1012.28 254.577H1003.53C997.402 254.577 995.213 252.388 995.213 246.26V196.369C995.213 178.646 984.71 169.016 966.989 169.016C953.207 169.016 936.799 177.547 928.699 186.516V246.252C928.699 252.38 926.51 254.569 920.383 254.569H911.63C905.503 254.569 903.315 252.38 903.315 246.252V169.016H895.222C889.095 169.016 886.907 166.828 886.907 160.7V153.481C886.907 147.353 889.095 145.165 895.222 145.165H916.444C922.571 145.165 924.76 147.353 924.76 153.481V159.609C936.576 149.98 952.546 143.414 969.829 143.414C1002.65 143.422 1020.6 162.896 1020.6 195.717Z" fill="black"/>
<path d="M1171.65 153.49V255.898C1171.65 278.651 1147.15 293.533 1115.86 293.533C1086.33 293.533 1072.33 284.779 1065.98 278.874C1062.92 276.033 1062.48 272.308 1064.01 268.592L1067.28 261.151C1069.7 255.683 1073.63 254.585 1078.44 258.525C1086.1 264.652 1093.54 269.682 1115.63 269.905C1135.32 269.905 1146.26 262.687 1146.26 253.933V243.428C1138.38 248.457 1128.75 251.744 1114.97 251.744C1079.53 251.744 1055.02 230.957 1055.02 197.699C1055.02 164.441 1079.52 143.431 1114.97 143.431C1130.28 143.431 1140.35 147.808 1147.14 153.06C1148.89 149.344 1152.39 145.181 1156.76 145.181H1163.33C1169.46 145.173 1171.65 147.362 1171.65 153.49ZM1146.28 215.199V180.19C1140.15 172.749 1131.18 168.157 1114.99 168.157C1095.52 168.157 1081.3 179.315 1081.3 197.699C1081.3 216.083 1095.52 227.017 1114.99 227.017C1130.96 227.009 1139.93 222.417 1146.28 215.199Z" fill="black"/>
<path d="M31.6477 279.881C13.2303 290.451 8.01626e-06 281.642 7.26706e-06 265.975C6.46951e-06 249.296 4.07645e-06 199.25 4.07645e-06 199.25C4.07645e-06 199.25 1.68339e-06 149.204 8.85835e-07 132.525C1.36639e-07 116.858 13.2221 108.049 31.6477 118.619C60.3325 135.078 146.379 184.471 146.379 184.471C157.82 191.037 157.82 207.455 146.379 214.021C146.379 214.029 60.3325 263.422 31.6477 279.881Z" fill="#00C1FF"/>
<path d="M126.364 279.881C107.946 290.451 94.7161 281.642 94.7161 265.975C94.7161 249.296 94.7161 199.25 94.7161 199.25C94.7161 199.25 94.7161 149.204 94.7161 132.525C94.7161 116.858 107.938 108.049 126.364 118.619C154.417 134.719 238.575 183.028 238.575 183.028C251.141 190.238 251.141 208.262 238.575 215.472C238.567 215.472 154.417 263.781 126.364 279.881Z" fill="#6FE4FF"/>
<mask id="mask0_5_10581" style="mask-type:alpha" maskUnits="userSpaceOnUse" x="94" y="114" width="154" height="171">
<path d="M126.364 279.881C107.946 290.451 94.7161 281.642 94.7161 265.975C94.7161 249.296 94.7161 199.25 94.7161 199.25C94.7161 199.25 94.7161 149.204 94.7161 132.525C94.7161 116.858 107.938 108.049 126.364 118.619C154.417 134.719 238.575 183.028 238.575 183.028C251.141 190.238 251.141 208.262 238.575 215.472C238.567 215.472 154.417 263.781 126.364 279.881Z" fill="#6FE4FF"/>
</mask>
<g mask="url(#mask0_5_10581)">
<path d="M31.6477 279.881C13.2303 290.451 8.01626e-06 281.642 7.26706e-06 265.975C6.46951e-06 249.296 4.07645e-06 199.25 4.07645e-06 199.25C4.07645e-06 199.25 1.68339e-06 149.204 8.85835e-07 132.525C1.36639e-07 116.858 13.2221 108.049 31.6477 118.619C60.3325 135.078 146.379 184.471 146.379 184.471C157.82 191.037 157.82 207.455 146.379 214.021C146.379 214.021 60.3325 263.422 31.6477 279.881Z" fill="#009EE4"/>
</g>
</g>
<defs>
<clipPath id="clip0_5_10581">
<rect width="1172" height="400" fill="white"/>
</clipPath>
</defs>
</svg>
